<?xml version="1.0" encoding="UTF-8"?><svg id="Calque_1" xmlns="http://www.w3.org/2000/svg" viewBox="0 0 1073.63 810.11"><path d="m1073.63,241.8v-1.73h-3.45c-52.68,0-136.16.58-250.44,1.73L743.74,0h-3.45c0,2.02-25.33,82.62-76,241.8-114.28-1.15-197.76-1.73-250.44-1.73h-3.45v3.45c12.09,7.49,80.6,56.42,205.53,146.81l-79.45,240.07h3.46c126.08-92.69,194.02-142.2,203.8-148.54,0,1.15,66.78,50.67,200.35,148.54h3.45l-77.72-238.35v-1.73l203.8-148.54Z"/><path d="m556.85,661.5c-4.9,11.09-15.73,18.26-28.61,18.22-17.62-.06-30.87-13.14-31.12-31.87-.38-28.75-.1-57.51-.1-86.26,0-28.5-.09-56.99.04-85.49.06-13.36,5.98-23.58,18.24-29.19,11.25-5.15,22.28-3.87,32.21,3.69,3.48,2.65,6.15,5.76,8.13,9.21l18.52-55.97c-59.53-43.03-100.37-72.39-128.14-92.21h-208.01c0-30.33-.21-60.1.12-89.87.11-10.16,8.34-17.86,18.43-18.66,2.58-.21,5.18-.14,7.77-.14,89.66,0,179.32,0,268.98,0,6.24,0,11.1.74,14.83,2.38,27.21.21,57.27.48,90.33.8.53-1.66,1.04-3.28,1.56-4.92-10.04-48.23-50.79-82.11-102.93-82.15-92.3-.07-184.59-.07-276.89,0-60.79.05-106.1,45.41-106.21,106.17-.05,25.93,0,51.85-.01,77.78,0,2.79,0,5.58,0,9.12-7.13,0-13.54,0-19.95,0-28.52,0-57.04-.06-85.56.02C18.84,312.23.06,331.15.02,360.89c-.04,29.81-.01,59.63,0,89.44,0,32.57,17.9,50.69,50.26,50.88,2.56.02,5.12,0,8.43,0,3.27,17.66,6.5,34.89,9.64,52.13,13.14,72.35,26.18,144.72,39.42,217.05,4.65,25.42,21.97,39.68,47.86,39.68,162.04.03,324.08.03,486.11,0,26.11,0,42.96-13.88,47.7-39.67,14.53-79.07,28.92-158.17,43.32-237.26-28.14,20.38-79.77,58.11-171.84,125.79-1.3.95-2.66,1.79-4.06,2.55Zm-256.52-12.89c-.05,16.25-11.84,29.23-27.15,30.85-16.48,1.75-30.53-7.83-34.33-23.71-.83-3.47-.87-7.18-.88-10.78-.07-27.72-.04-55.44-.04-83.16h.03c0-29.01-.17-58.03.07-87.04.13-15.74,11.92-28.77,26.77-30.45,16.49-1.87,30.66,7.6,34.67,23.32.63,2.48.88,5.11.88,7.68.05,57.77.13,115.54-.03,173.31Zm129.64-1.54c-.2,19.6-13.62,32.96-31.91,32.63-16.91-.31-30.51-13.31-30.61-30.85-.31-58.03-.33-116.06.02-174.09.1-17.53,13.83-30.46,30.75-30.66,17.52-.2,31.24,12.32,31.59,30.44.55,29.26.15,58.54.15,87.82h.09c0,28.24.22,56.48-.08,84.71Z"/></svg>