<?xml version="1.0" encoding="UTF-8"?><svg id="Calque_1" xmlns="http://www.w3.org/2000/svg" viewBox="0 0 1670.03 250.33"><path id="_star-1_" class="logo-animation-loader opacity-0 transition-opacity duration-500 ease-in-out" d="m131,0h1.37l30.18,96.02c45.38-.46,78.53-.69,99.45-.69h1.37v.69l-80.93,58.98v.69l30.86,94.65h-1.37c-53.04-38.86-79.56-58.52-79.56-58.98-3.89,2.52-30.86,22.18-80.93,58.98h-1.37l31.55-95.33C32,119.11,4.8,99.68,0,96.71v-1.37h1.37c20.92,0,54.07.23,99.45.69C120.94,32.81,131,.8,131,0Z" fill="#b40000"/><path id="_star-2_" class="logo-animation-loader opacity-0 transition-opacity duration-500 ease-in-out" d="m418.37,0h1.37l30.18,96.02c45.38-.46,78.53-.69,99.45-.69h1.37v.69l-80.93,58.98v.69l30.86,94.65h-1.37c-53.04-38.86-79.56-58.52-79.56-58.98-3.89,2.52-30.86,22.18-80.93,58.98h-1.37l31.55-95.33c-49.61-35.89-76.81-55.32-81.62-58.3v-1.37h1.37c20.92,0,54.07.23,99.45.69C408.31,32.81,418.37.8,418.37,0Z" fill="#b40000"/><path id="_star-3_" class="logo-animation-loader opacity-0 transition-opacity duration-500 ease-in-out" d="m574.74,100.82h248.28v1.37c0,.8-2.74,2.63-8.23,5.49-1.03,0-1.95-.23-2.74-.69-.92.46-1.6.69-2.06.69v-.69c-.46,0-.69.23-.69.69l-4.12-.69-4.8.69-1.37-.69c-.92.46-1.6.69-2.06.69v-.69c-.46,0-.69.23-.69.69l-4.11-.69-4.8.69-1.37-.69c-.92.46-1.6.69-2.06.69v-.69c-.46,0-.69.23-.69.69l-4.12-.69-4.8.69-1.37-.69c-.92.46-1.6.69-2.06.69v-.69c-.46,0-.69.23-.69.69l-4.12-.69-4.8.69-1.37-.69c-.92.46-1.6.69-2.06.69v-.69c-.46,0-.69.23-.69.69l-4.12-.69-4.8.69-1.37-.69c-.92.46-1.6.69-2.06.69v-.69c-.46,0-.69.23-.69.69l-4.12-.69-4.8.69-1.37-.69c-.92.46-1.6.69-2.06.69v-.69c-.46,0-.69.23-.69.69l-4.11-.69-4.8.69-1.37-.69c-.92.46-1.6.69-2.06.69v-.69c-.46,0-.69.23-.69.69l-4.12-.69-4.8.69-1.37-.69c-.92.46-1.6.69-2.06.69v-.69c-.46,0-.69.23-.69.69l-4.12-.69-4.8.69-1.37-.69c-.92.46-1.6.69-2.06.69v-.69c-.46,0-.69.23-.69.69l-4.12-.69-4.8.69-1.37-.69c-.92.46-1.6.69-2.06.69v-.69c-.46,0-.69.23-.69.69l-4.12-.69-4.8.69-1.37-.69c-.92.46-1.6.69-2.06.69v-.69c-.46,0-.69.23-.69.69l-4.12-.69-4.8.69-1.37-.69c-.92.46-1.6.69-2.06.69v-.69c-.46,0-.69.23-.69.69l-4.12-.69-4.8.69-1.37-.69c-.92.46-1.6.69-2.06.69v-.69c-.46,0-.69.23-.69.69l-4.12-.69-4.8.69-1.37-.69c-.92.46-1.6.69-2.06.69v-.69c-.46,0-.69.23-.69.69l-4.12-.69-4.8.69-1.37-.69c-.92.46-1.6.69-2.06.69v-.69c-.46,0-.69.23-.69.69l-4.12-.69-4.8.69-1.37-.69c-.92.46-1.6.69-2.06.69v-.69c-.46,0-.69.23-.69.69l-4.12-.69-4.8.69-1.37-.69c-.92.46-1.6.69-2.06.69v-.69c-.46,0-.69.23-.69.69-5.72,0-10.06-2.06-13.03-6.17v-.69Zm17.83,13.03h212.61v.69c-.69,1.83-3.66,3.89-8.92,6.17l-4.11-.69-4.8.69-1.37-.69c-.92.46-1.6.69-2.06.69v-.69c-.46,0-.69.23-.69.69l-4.12-.69-4.8.69-1.37-.69c-.92.46-1.6.69-2.06.69v-.69c-.46,0-.69.23-.69.69l-4.12-.69-4.8.69-1.37-.69c-.92.46-1.6.69-2.06.69v-.69c-.46,0-.69.23-.69.69l-4.12-.69-4.8.69-1.37-.69c-.92.46-1.6.69-2.06.69v-.69c-.46,0-.69.23-.69.69l-4.12-.69-4.8.69-1.37-.69c-.92.46-1.6.69-2.06.69v-.69c-.46,0-.69.23-.69.69l-4.11-.69-4.8.69-1.37-.69c-.92.46-1.6.69-2.06.69v-.69c-.46,0-.69.23-.69.69l-4.12-.69-4.8.69-1.37-.69c-.92.46-1.6.69-2.06.69v-.69c-.46,0-.69.23-.69.69l-4.12-.69-4.8.69-1.37-.69c-.92.46-1.6.69-2.06.69v-.69c-.46,0-.69.23-.69.69l-4.12-.69-4.8.69-1.37-.69c-.92.46-1.6.69-2.06.69v-.69c-.46,0-.69.23-.69.69l-4.12-.69-4.8.69-1.37-.69c-.92.46-1.6.69-2.06.69v-.69c-.46,0-.69.23-.69.69l-4.12-.69-4.8.69-1.37-.69c-.92.46-1.6.69-2.06.69v-.69c-.46,0-.69.23-.69.69l-4.12-.69-4.8.69-1.37-.69c-.92.46-1.6.69-2.06.69v-.69c-.46,0-.69.23-.69.69l-4.12-.69-4.8.69-1.37-.69c-.92.46-1.6.69-2.06.69v-.69c-.46,0-.69.23-.69.69l-4.12-.69-4.8.69-1.37-.69c-.92.46-1.6.69-2.06.69v-.69c-.46,0-.69.23-.69.69l-4.12-.69-4.8.69-1.37-.69-1.37.69c-4.8-1.83-8-3.88-9.6-6.17v-.69Zm18.52,13.03h176.26v.69c-3.54,4.12-7.89,6.17-13.03,6.17l-1.37-.69c-.92.46-1.6.69-2.06.69v-.69c-.46,0-.69.23-.69.69l-4.12-.69-4.8.69-1.37-.69c-.92.46-1.6.69-2.06.69v-.69c-.46,0-.69.23-.69.69l-4.12-.69-4.8.69-1.37-.69c-.92.46-1.6.69-2.06.69v-.69c-.46,0-.69.23-.69.69l-4.12-.69-4.8.69-1.37-.69c-.92.46-1.6.69-2.06.69v-.69c-.46,0-.69.23-.69.69l-4.11-.69-4.8.69-1.37-.69c-.92.46-1.6.69-2.06.69v-.69c-.46,0-.69.23-.69.69l-4.12-.69-4.8.69-1.37-.69c-.92.46-1.6.69-2.06.69v-.69c-.46,0-.69.23-.69.69l-4.12-.69-4.8.69-1.37-.69c-.92.46-1.6.69-2.06.69v-.69c-.46,0-.69.23-.69.69l-4.12-.69-4.8.69-1.37-.69c-.92.46-1.6.69-2.06.69v-.69c-.46,0-.69.23-.69.69l-4.12-.69-4.8.69-1.37-.69c-.92.46-1.6.69-2.06.69v-.69c-.46,0-.69.23-.69.69l-4.12-.69-4.8.69-1.37-.69c-.92.46-1.6.69-2.06.69v-.69c-.46,0-.69.23-.69.69l-4.12-.69-4.8.69-1.37-.69c-.92.46-1.6.69-2.06.69v-.69c-.46,0-.69.23-.69.69l-4.12-.69-4.8.69-1.37-.69c-.92.46-1.6.69-2.06.69v-.69c-.46,0-.69.23-.69.69l-3.43-.69h-1.37l-3.43.69c-5.03-2.97-7.54-5.26-7.54-6.86Zm9.6,117.28h5.49v.69c-.34,1.37-2.86,3.2-7.54,5.49l-.69-1.37v-1.37c1.26-2.29,2.17-3.43,2.74-3.43Zm4.12-13.03h19.2v.69c-3.2,4.12-7.54,6.17-13.03,6.17l-1.37-.69c-.92.46-1.6.69-2.06.69v-.69c-.46,0-.69.23-.69.69l-4.12-.69v-2.06c.34-2.74,1.03-4.12,2.06-4.12Zm4.8-13.03h32.23v.69c-.23,1.37-3.2,3.43-8.92,6.17l-4.12-.69-4.8.69-1.37-.69c-.92.46-1.6.69-2.06.69v-.69c-.46,0-.69.23-.69.69l-4.12-.69-4.8.69-1.37-.69c-.92.46-1.6.69-2.06.69l-.69-1.37v-.69c0-2.51.91-4.12,2.74-4.8Zm-.69-78.19h139.91v.69c0,2.06-3.66,4.12-10.97,6.17v-.69c-.46,0-.69.23-.69.69l-4.12-.69-4.8.69-1.37-.69c-.92.46-1.6.69-2.06.69v-.69c-.46,0-.69.23-.69.69l-4.12-.69-4.8.69-1.37-.69c-.92.46-1.6.69-2.06.69v-.69c-.46,0-.69.23-.69.69l-4.11-.69-4.8.69-1.37-.69c-.92.46-1.6.69-2.06.69v-.69c-.46,0-.69.23-.69.69l-4.12-.69-4.8.69-1.37-.69c-.92.46-1.6.69-2.06.69v-.69c-.46,0-.69.23-.69.69l-4.12-.69-4.8.69-1.37-.69c-.92.46-1.6.69-2.06.69v-.69c-.46,0-.69.23-.69.69l-4.12-.69-4.8.69-1.37-.69c-.92.46-1.6.69-2.06.69v-.69c-.46,0-.69.23-.69.69l-4.12-.69-4.8.69-1.37-.69c-.92.46-1.6.69-2.06.69v-.69c-.46,0-.69.23-.69.69l-4.12-.69-4.8.69-1.37-.69c-.92.46-1.6.69-2.06.69v-.69c-.46,0-.69.23-.69.69l-4.12-.69-4.8.69-1.37-.69c-.92.46-1.6.69-2.06.69v-.69c-.46,0-.69.23-.69.69-3.66,0-7.32-2.06-10.97-6.17v-.69Zm4.8,65.16h44.58c.91.12,1.37.57,1.37,1.37-5.49,3.66-8.69,5.49-9.6,5.49l-1.37-.69c-.92.46-1.6.69-2.06.69v-.69c-.46,0-.69.23-.69.69l-4.12-.69-4.8.69-1.37-.69c-.92.46-1.6.69-2.06.69v-.69c-.46,0-.69.23-.69.69l-4.12-.69-4.8.69-1.37-.69c-.92.46-1.6.69-2.06.69v-.69c-.46,0-.69.23-.69.69l-3.43-.69h-1.37l-3.43.69-.69-1.37v-2.06c1.26-2.29,2.17-3.43,2.74-3.43Zm4.12-13.03h58.98v.69c-2.86,4.12-7.43,6.17-13.72,6.17l-1.37-.69c-.92.46-1.6.69-2.06.69v-.69c-.46,0-.69.23-.69.69l-4.12-.69-4.8.69-1.37-.69c-.92.46-1.6.69-2.06.69v-.69c-.46,0-.69.23-.69.69l-4.12-.69-4.8.69-1.37-.69c-.92.46-1.6.69-2.06.69v-.69c-.46,0-.69.23-.69.69l-4.12-.69-4.8.69-1.37-.69c-.92.46-1.6.69-2.06.69v-.69c-.46,0-.69.23-.69.69-1.83-.46-3.43-.69-4.8-.69v-.69c.57-3.43,1.48-5.26,2.74-5.49Zm4.8-13.03h113.16c1.37,0,2.06,2.06,2.06,6.17-.46,0-.69.23-.69.69l-4.12-.69-4.8.69-1.37-.69c-.92.46-1.6.69-2.06.69v-.69c-.46,0-.69.23-.69.69l-4.12-.69-4.8.69-1.37-.69c-.92.46-1.6.69-2.06.69v-.69c-.46,0-.69.23-.69.69l-4.11-.69-4.8.69-1.37-.69c-.92.46-1.6.69-2.06.69v-.69c-.46,0-.69.23-.69.69l-4.12-.69-4.8.69-1.37-.69c-.92.46-1.6.69-2.06.69v-.69c-.46,0-.69.23-.69.69l-4.12-.69-4.8.69-1.37-.69c-.92.46-1.6.69-2.06.69v-.69c-.46,0-.69.23-.69.69l-4.12-.69-4.8.69-1.37-.69c-.92.46-1.6.69-2.06.69v-.69c-.46,0-.69.23-.69.69l-4.12-.69-4.8.69-1.37-.69c-.92.46-1.6.69-2.06.69v-.69c-.46,0-.69.23-.69.69l-4.12-.69-4.8.69-1.37-.69c-.92.46-1.6.69-2.06.69v-.69c-.46,0-.69.23-.69.69l-4.12-.69-4.8.69-1.37-.69c-.92.46-1.6.69-2.06.69l-.69-1.37v-.69c0-2.51.91-4.11,2.74-4.8Zm4.12-13.03h104.25c1.83.69,2.74,2.29,2.74,4.8v1.37c-1.14,0-2.97.23-5.49.69l-1.37-.69c-.92.46-1.6.69-2.06.69v-.69c-.46,0-.69.23-.69.69l-4.12-.69-4.8.69-1.37-.69c-.92.46-1.6.69-2.06.69v-.69c-.46,0-.69.23-.69.69l-4.11-.69-4.8.69-1.37-.69c-.92.46-1.6.69-2.06.69v-.69c-.46,0-.69.23-.69.69l-4.12-.69-4.8.69-1.37-.69c-.92.46-1.6.69-2.06.69v-.69c-.46,0-.69.23-.69.69l-4.12-.69-4.8.69-1.37-.69c-.92.46-1.6.69-2.06.69v-.69c-.46,0-.69.23-.69.69l-4.12-.69-4.8.69-1.37-.69c-.92.46-1.6.69-2.06.69v-.69c-.46,0-.69.23-.69.69l-4.12-.69-4.8.69-1.37-.69c-.92.46-1.6.69-2.06.69v-.69c-.46,0-.69.23-.69.69l-4.12-.69-4.8.69-1.37-.69c-.92.46-1.6.69-2.06.69v-.69c-.46,0-.69.23-.69.69l-3.43-.69h-1.37l-3.43.69-.69-1.37v-.69c0-2.51.91-4.12,2.74-4.8Zm0-13.03h104.25v.69c-1.26,4.12-2.17,6.17-2.74,6.17l-1.37-.69c-.92.46-1.6.69-2.06.69v-.69c-.46,0-.69.23-.69.69l-4.12-.69-4.8.69-1.37-.69c-.92.46-1.6.69-2.06.69v-.69c-.46,0-.69.23-.69.69l-4.11-.69-4.8.69-1.37-.69c-.92.46-1.6.69-2.06.69v-.69c-.46,0-.69.23-.69.69l-4.12-.69-4.8.69-1.37-.69c-.92.46-1.6.69-2.06.69v-.69c-.46,0-.69.23-.69.69l-4.12-.69-4.8.69-1.37-.69c-.92.46-1.6.69-2.06.69v-.69c-.46,0-.69.23-.69.69l-4.12-.69-4.8.69-1.37-.69c-.92.46-1.6.69-2.06.69v-.69c-.46,0-.69.23-.69.69l-4.12-.69-4.8.69-1.37-.69c-.92.46-1.6.69-2.06.69v-.69c-.46,0-.69.23-.69.69l-4.12-.69-4.8.69-1.37-.69c-.92.46-1.6.69-2.06.69v-.69c-.46,0-.69.23-.69.69-1.83-.46-3.43-.69-4.8-.69v-2.06l.69-1.37c-.69,0-1.37-.69-2.06-2.06v-.69Zm25.38-65.16h53.5c1.83.69,2.74,2.29,2.74,4.8v1.37c-1.6,0-3.66.23-6.17.69l-1.37-.69c-.92.46-1.6.69-2.06.69v-.69c-.46,0-.69.23-.69.69l-4.12-.69-4.8.69-1.37-.69c-.92.46-1.6.69-2.06.69v-.69c-.46,0-.69.23-.69.69l-4.12-.69-4.8.69-1.37-.69c-.92.46-1.6.69-2.06.69v-.69c-.46,0-.69.23-.69.69l-4.12-.69-4.8.69-1.37-.69c-.92.46-1.6.69-2.06.69v-.69c-.46,0-.69.23-.69.69l-3.43-.69h-.69l-4.8.69-.69-1.37v-.69c0-2.51.91-4.12,2.74-4.8Zm4.12-13.03h45.27c1.83.69,2.74,2.29,2.74,4.8v.69c0,.92-.69,1.37-2.06,1.37l-1.37-.69c-.92.46-1.6.69-2.06.69v-.69c-.46,0-.69.23-.69.69l-4.12-.69-4.8.69-1.37-.69c-.92.46-1.6.69-2.06.69v-.69c-.46,0-.69.23-.69.69l-4.12-.69-4.8.69-1.37-.69c-.92.46-1.6.69-2.06.69v-.69c-.46,0-.69.23-.69.69l-4.12-.69-4.8.69-1.37-.69c-.92.46-1.6.69-2.06.69v-.69c-.46,0-.69.23-.69.69-3.66-.46-5.49-1.14-5.49-2.06,0-2.51.91-4.12,2.74-4.8Zm4.12-13.03h37.04c1.83.69,2.74,2.29,2.74,4.8v.69c0,.92-.46,1.37-1.37,1.37v-.69c-.46,0-.69.23-.69.69l-4.12-.69-4.8.69-1.37-.69c-.92.46-1.6.69-2.06.69v-.69c-.46,0-.69.23-.69.69l-4.12-.69-4.8.69-1.37-.69c-.92.46-1.6.69-2.06.69v-.69c-.46,0-.69.23-.69.69l-4.12-.69-4.8.69-1.37-.69c-.92.46-1.6.69-2.06.69,0-.46-.23-.69-.69-.69,0,.46-.23.69-.69.69l-.69-1.37v-2.06c1.26-2.29,2.17-3.43,2.74-3.43Zm4.12-13.03h28.8c1.83.69,2.74,2.29,2.74,4.8,0,1.03-2.29,1.71-6.86,2.06l-1.37-.69c-.92.46-1.6.69-2.06.69v-.69c-.46,0-.69.23-.69.69l-4.12-.69-4.8.69-1.37-.69c-.92.46-1.6.69-2.06.69v-.69c-.46,0-.69.23-.69.69l-4.12-.69c-.34,0-2.17.23-5.49.69l-.69-1.37v-2.06c1.26-2.29,2.17-3.43,2.74-3.43Zm4.11-13.03h20.58c1.83.69,2.74,2.29,2.74,4.8v.69c0,.92-.46,1.37-1.37,1.37-1.03,0-1.95-.23-2.74-.69-.92.46-1.6.69-2.06.69v-.69c-.46,0-.69.23-.69.69l-4.12-.69-4.8.69-1.37-.69c-.92.46-1.6.69-2.06.69v-.69c-.46,0-.69.23-.69.69l-3.43-.69h-2.74v-.69c.57-3.43,1.48-5.26,2.74-5.49Zm4.12-13.03h12.35c1.83.69,2.74,2.29,2.74,4.8v.69c0,.92-.46,1.37-1.37,1.37-.46,0-.69-.23-.69-.69-.46,0-.69.23-.69.69l-4.12-.69-4.8.69-1.37-.69c-.92.46-1.6.69-2.06.69,0-.46-.23-.69-.69-.69,0,.46-.23.69-.69.69l-1.37-2.06v-1.37c1.26-2.29,2.17-3.43,2.74-3.43Zm4.12-13.03h4.12c.69,0,1.6,1.14,2.74,3.43v1.37c0,1.03-2.74,1.71-8.23,2.06l-1.37-2.06c1.14-3.2,2.06-4.8,2.74-4.8Zm1.37-9.6h1.37v2.06h-1.37V0Zm2.74,192.04h58.98c1.83.69,2.74,2.29,2.74,4.8v.69c0,.92-.46,1.37-1.37,1.37l-1.37-.69c-.92.46-1.6.69-2.06.69v-.69c-.46,0-.69.23-.69.69l-4.12-.69-4.8.69-1.37-.69c-.92.46-1.6.69-2.06.69v-.69c-.46,0-.69.23-.69.69l-4.12-.69-4.8.69-1.37-.69c-.92.46-1.6.69-2.06.69v-.69c-.46,0-.69.23-.69.69l-4.11-.69-4.8.69-1.37-.69c-.92.46-1.6.69-2.06.69v-.69c-.46,0-.69.23-.69.69l-3.43-.69h-.69l-4.12.69c-5.26-2.29-8.23-4.34-8.92-6.17v-.69Zm17.83,13.03h45.27c1.83.69,2.74,2.29,2.74,4.8v1.37c-1.14,0-2.97.23-5.49.69l-1.37-.69c-.92.46-1.6.69-2.06.69v-.69c-.46,0-.69.23-.69.69l-4.12-.69-4.8.69-1.37-.69c-.92.46-1.6.69-2.06.69v-.69c-.46,0-.69.23-.69.69l-4.12-.69-4.8.69-1.37-.69c-.92.46-1.6.69-2.06.69v-.69c-.46,0-.69.23-.69.69-5.03,0-9.15-2.06-12.34-6.17v-.69Zm17.83,13.03h32.23c1.37.46,2.06,1.83,2.06,4.11v1.37l-.69,1.37-4.12-.69-4.8.69-1.37-.69c-.92.46-1.6.69-2.06.69v-.69c-.46,0-.69.23-.69.69l-4.12-.69-4.8.69-1.37-.69-1.37.69c-4-1.37-6.97-3.43-8.92-6.17v-.69Zm17.15,13.03h19.2c.69,0,1.6,1.14,2.74,3.43v2.06c0,.92-.46,1.37-1.37,1.37l-1.37-.69c-.92.46-1.6.69-2.06.69v-.69c-.46,0-.69.23-.69.69l-3.43-.69h-1.37c-1.03,0-1.95.23-2.74.69l-8.92-5.49v-1.37Zm19.2,13.03h4.12c1.83.69,2.74,2.29,2.74,4.8v.69h-2.06c-3.54-1.94-5.6-3.54-6.17-4.8l1.37-.69Z" fill="#b40000"/><path id="_star-4_" class="logo-animation-loader opacity-0 transition-opacity duration-500 ease-in-out" d="m978.02,0h1.37l30.18,96.02c45.38-.46,78.53-.69,99.45-.69h1.37v.69l-80.93,58.98v.69l30.86,94.65h-1.37c-53.04-38.86-79.56-58.52-79.56-58.98-3.89,2.52-30.86,22.18-80.93,58.98h-1.37l31.55-95.33c-49.61-35.89-76.81-55.32-81.62-58.3v-1.37h1.37c20.92,0,54.07.23,99.45.69,20.12-63.21,30.18-95.22,30.18-96.02Z" fill="#b40000"/><path id="_star-5_" class="logo-animation-loader opacity-0 transition-opacity duration-500 ease-in-out" d="m1265.38,0h1.37l30.18,96.02c45.38-.46,78.53-.69,99.45-.69h1.37v.69l-80.93,58.98v.69l30.86,94.65h-1.37c-53.04-38.86-79.56-58.52-79.56-58.98-3.89,2.52-30.86,22.18-80.93,58.98h-1.37l31.55-95.33c-49.61-35.89-76.81-55.32-81.62-58.3v-1.37h1.37c20.92,0,54.07.23,99.45.69,20.12-63.21,30.18-95.22,30.18-96.02Z" fill="#b40000"/><path id="_star-6_" class="logo-animation-loader opacity-0 transition-opacity duration-500 ease-in-out" d="m1421.76,100.82h248.28v1.37c0,.8-2.74,2.63-8.23,5.49-1.03,0-1.95-.23-2.74-.69-.92.46-1.6.69-2.06.69v-.69c-.46,0-.69.23-.69.69l-4.12-.69-4.8.69-1.37-.69c-.92.46-1.6.69-2.06.69v-.69c-.46,0-.69.23-.69.69l-4.11-.69-4.8.69-1.37-.69c-.92.46-1.6.69-2.06.69v-.69c-.46,0-.69.23-.69.69l-4.12-.69-4.8.69-1.37-.69c-.92.46-1.6.69-2.06.69v-.69c-.46,0-.69.23-.69.69l-4.12-.69-4.8.69-1.37-.69c-.92.46-1.6.69-2.06.69v-.69c-.46,0-.69.23-.69.69l-4.12-.69-4.8.69-1.37-.69c-.92.46-1.6.69-2.06.69v-.69c-.46,0-.69.23-.69.69l-4.12-.69-4.8.69-1.37-.69c-.92.46-1.6.69-2.06.69v-.69c-.46,0-.69.23-.69.69l-4.11-.69-4.8.69-1.37-.69c-.92.46-1.6.69-2.06.69v-.69c-.46,0-.69.23-.69.69l-4.12-.69-4.8.69-1.37-.69c-.92.46-1.6.69-2.06.69v-.69c-.46,0-.69.23-.69.69l-4.12-.69-4.8.69-1.37-.69c-.92.46-1.6.69-2.06.69v-.69c-.46,0-.69.23-.69.69l-4.12-.69-4.8.69-1.37-.69c-.92.46-1.6.69-2.06.69v-.69c-.46,0-.69.23-.69.69l-4.12-.69-4.8.69-1.37-.69c-.92.46-1.6.69-2.06.69v-.69c-.46,0-.69.23-.69.69l-4.12-.69-4.8.69-1.37-.69c-.92.46-1.6.69-2.06.69v-.69c-.46,0-.69.23-.69.69l-4.12-.69-4.8.69-1.37-.69c-.92.46-1.6.69-2.06.69v-.69c-.46,0-.69.23-.69.69l-4.12-.69-4.8.69-1.37-.69c-.92.46-1.6.69-2.06.69v-.69c-.46,0-.69.23-.69.69l-4.12-.69-4.8.69-1.37-.69c-.92.46-1.6.69-2.06.69v-.69c-.46,0-.69.23-.69.69l-4.12-.69-4.8.69-1.37-.69c-.92.46-1.6.69-2.06.69v-.69c-.46,0-.69.23-.69.69l-4.12-.69-4.8.69-1.37-.69c-.92.46-1.6.69-2.06.69v-.69c-.46,0-.69.23-.69.69-5.72,0-10.06-2.06-13.03-6.17v-.69Zm17.83,13.03h212.61v.69c-.69,1.83-3.66,3.89-8.92,6.17l-4.11-.69-4.8.69-1.37-.69c-.92.46-1.6.69-2.06.69v-.69c-.46,0-.69.23-.69.69l-4.12-.69-4.8.69-1.37-.69c-.92.46-1.6.69-2.06.69v-.69c-.46,0-.69.23-.69.69l-4.12-.69-4.8.69-1.37-.69c-.92.46-1.6.69-2.06.69v-.69c-.46,0-.69.23-.69.69l-4.12-.69-4.8.69-1.37-.69c-.92.46-1.6.69-2.06.69v-.69c-.46,0-.69.23-.69.69l-4.12-.69-4.8.69-1.37-.69c-.92.46-1.6.69-2.06.69v-.69c-.46,0-.69.23-.69.69l-4.11-.69-4.8.69-1.37-.69c-.92.46-1.6.69-2.06.69v-.69c-.46,0-.69.23-.69.69l-4.12-.69-4.8.69-1.37-.69c-.92.46-1.6.69-2.06.69v-.69c-.46,0-.69.23-.69.69l-4.12-.69-4.8.69-1.37-.69c-.92.46-1.6.69-2.06.69v-.69c-.46,0-.69.23-.69.69l-4.12-.69-4.8.69-1.37-.69c-.92.46-1.6.69-2.06.69v-.69c-.46,0-.69.23-.69.69l-4.12-.69-4.8.69-1.37-.69c-.92.46-1.6.69-2.06.69v-.69c-.46,0-.69.23-.69.69l-4.12-.69-4.8.69-1.37-.69c-.92.46-1.6.69-2.06.69v-.69c-.46,0-.69.23-.69.69l-4.12-.69-4.8.69-1.37-.69c-.92.46-1.6.69-2.06.69v-.69c-.46,0-.69.23-.69.69l-4.12-.69-4.8.69-1.37-.69c-.92.46-1.6.69-2.06.69v-.69c-.46,0-.69.23-.69.69l-4.12-.69-4.8.69-1.37-.69c-.92.46-1.6.69-2.06.69v-.69c-.46,0-.69.23-.69.69l-4.12-.69-4.8.69-1.37-.69-1.37.69c-4.8-1.83-8-3.88-9.6-6.17v-.69Zm18.52,13.03h176.26v.69c-3.54,4.12-7.89,6.17-13.03,6.17l-1.37-.69c-.92.46-1.6.69-2.06.69v-.69c-.46,0-.69.23-.69.69l-4.12-.69-4.8.69-1.37-.69c-.92.46-1.6.69-2.06.69v-.69c-.46,0-.69.23-.69.69l-4.12-.69-4.8.69-1.37-.69c-.92.46-1.6.69-2.06.69v-.69c-.46,0-.69.23-.69.69l-4.12-.69-4.8.69-1.37-.69c-.92.46-1.6.69-2.06.69v-.69c-.46,0-.69.23-.69.69l-4.11-.69-4.8.69-1.37-.69c-.92.46-1.6.69-2.06.69v-.69c-.46,0-.69.23-.69.69l-4.12-.69-4.8.69-1.37-.69c-.92.46-1.6.69-2.06.69v-.69c-.46,0-.69.23-.69.69l-4.12-.69-4.8.69-1.37-.69c-.92.46-1.6.69-2.06.69v-.69c-.46,0-.69.23-.69.69l-4.12-.69-4.8.69-1.37-.69c-.92.46-1.6.69-2.06.69v-.69c-.46,0-.69.23-.69.69l-4.12-.69-4.8.69-1.37-.69c-.92.46-1.6.69-2.06.69v-.69c-.46,0-.69.23-.69.69l-4.12-.69-4.8.69-1.37-.69c-.92.46-1.6.69-2.06.69v-.69c-.46,0-.69.23-.69.69l-4.12-.69-4.8.69-1.37-.69c-.92.46-1.6.69-2.06.69v-.69c-.46,0-.69.23-.69.69l-4.12-.69-4.8.69-1.37-.69c-.92.46-1.6.69-2.06.69v-.69c-.46,0-.69.23-.69.69l-3.43-.69h-1.37l-3.43.69c-5.03-2.97-7.54-5.26-7.54-6.86Zm9.6,117.28h5.49v.69c-.34,1.37-2.86,3.2-7.54,5.49l-.69-1.37v-1.37c1.26-2.29,2.17-3.43,2.74-3.43Zm4.12-13.03h19.2v.69c-3.2,4.12-7.54,6.17-13.03,6.17l-1.37-.69c-.92.46-1.6.69-2.06.69v-.69c-.46,0-.69.23-.69.69l-4.12-.69v-2.06c.34-2.74,1.03-4.12,2.06-4.12Zm4.8-13.03h32.23v.69c-.23,1.37-3.2,3.43-8.92,6.17l-4.12-.69-4.8.69-1.37-.69c-.92.46-1.6.69-2.06.69v-.69c-.46,0-.69.23-.69.69l-4.12-.69-4.8.69-1.37-.69c-.92.46-1.6.69-2.06.69l-.69-1.37v-.69c0-2.51.91-4.12,2.74-4.8Zm-.69-78.19h139.91v.69c0,2.06-3.66,4.12-10.97,6.17v-.69c-.46,0-.69.23-.69.69l-4.12-.69-4.8.69-1.37-.69c-.92.46-1.6.69-2.06.69v-.69c-.46,0-.69.23-.69.69l-4.12-.69-4.8.69-1.37-.69c-.92.46-1.6.69-2.06.69v-.69c-.46,0-.69.23-.69.69l-4.11-.69-4.8.69-1.37-.69c-.92.46-1.6.69-2.06.69v-.69c-.46,0-.69.23-.69.69l-4.12-.69-4.8.69-1.37-.69c-.92.46-1.6.69-2.06.69v-.69c-.46,0-.69.23-.69.69l-4.12-.69-4.8.69-1.37-.69c-.92.46-1.6.69-2.06.69v-.69c-.46,0-.69.23-.69.69l-4.12-.69-4.8.69-1.37-.69c-.92.46-1.6.69-2.06.69v-.69c-.46,0-.69.23-.69.69l-4.12-.69-4.8.69-1.37-.69c-.92.46-1.6.69-2.06.69v-.69c-.46,0-.69.23-.69.69l-4.12-.69-4.8.69-1.37-.69c-.92.46-1.6.69-2.06.69v-.69c-.46,0-.69.23-.69.69l-4.12-.69-4.8.69-1.37-.69c-.92.46-1.6.69-2.06.69v-.69c-.46,0-.69.23-.69.69-3.66,0-7.32-2.06-10.97-6.17v-.69Zm4.8,65.16h44.58c.91.12,1.37.57,1.37,1.37-5.49,3.66-8.69,5.49-9.6,5.49l-1.37-.69c-.92.46-1.6.69-2.06.69v-.69c-.46,0-.69.23-.69.69l-4.12-.69-4.8.69-1.37-.69c-.92.46-1.6.69-2.06.69v-.69c-.46,0-.69.23-.69.69l-4.12-.69-4.8.69-1.37-.69c-.92.46-1.6.69-2.06.69v-.69c-.46,0-.69.23-.69.69l-3.43-.69h-1.37l-3.43.69-.69-1.37v-2.06c1.26-2.29,2.17-3.43,2.74-3.43Zm4.12-13.03h58.98v.69c-2.86,4.12-7.43,6.17-13.72,6.17l-1.37-.69c-.92.46-1.6.69-2.06.69v-.69c-.46,0-.69.23-.69.69l-4.12-.69-4.8.69-1.37-.69c-.92.46-1.6.69-2.06.69v-.69c-.46,0-.69.23-.69.69l-4.12-.69-4.8.69-1.37-.69c-.92.46-1.6.69-2.06.69v-.69c-.46,0-.69.23-.69.69l-4.12-.69-4.8.69-1.37-.69c-.92.46-1.6.69-2.06.69v-.69c-.46,0-.69.23-.69.69-1.83-.46-3.43-.69-4.8-.69v-.69c.57-3.43,1.48-5.26,2.74-5.49Zm4.8-13.03h113.16c1.37,0,2.06,2.06,2.06,6.17-.46,0-.69.23-.69.69l-4.12-.69-4.8.69-1.37-.69c-.92.46-1.6.69-2.06.69v-.69c-.46,0-.69.23-.69.69l-4.12-.69-4.8.69-1.37-.69c-.92.46-1.6.69-2.06.69v-.69c-.46,0-.69.23-.69.69l-4.11-.69-4.8.69-1.37-.69c-.92.46-1.6.69-2.06.69v-.69c-.46,0-.69.23-.69.69l-4.12-.69-4.8.69-1.37-.69c-.92.46-1.6.69-2.06.69v-.69c-.46,0-.69.23-.69.69l-4.12-.69-4.8.69-1.37-.69c-.92.46-1.6.69-2.06.69v-.69c-.46,0-.69.23-.69.69l-4.12-.69-4.8.69-1.37-.69c-.92.46-1.6.69-2.06.69v-.69c-.46,0-.69.23-.69.69l-4.12-.69-4.8.69-1.37-.69c-.92.46-1.6.69-2.06.69v-.69c-.46,0-.69.23-.69.69l-4.12-.69-4.8.69-1.37-.69c-.92.46-1.6.69-2.06.69v-.69c-.46,0-.69.23-.69.69l-4.12-.69-4.8.69-1.37-.69c-.92.46-1.6.69-2.06.69l-.69-1.37v-.69c0-2.51.91-4.11,2.74-4.8Zm4.12-13.03h104.25c1.83.69,2.74,2.29,2.74,4.8v1.37c-1.14,0-2.97.23-5.49.69l-1.37-.69c-.92.46-1.6.69-2.06.69v-.69c-.46,0-.69.23-.69.69l-4.12-.69-4.8.69-1.37-.69c-.92.46-1.6.69-2.06.69v-.69c-.46,0-.69.23-.69.69l-4.11-.69-4.8.69-1.37-.69c-.92.46-1.6.69-2.06.69v-.69c-.46,0-.69.23-.69.69l-4.12-.69-4.8.69-1.37-.69c-.92.46-1.6.69-2.06.69v-.69c-.46,0-.69.23-.69.69l-4.12-.69-4.8.69-1.37-.69c-.92.46-1.6.69-2.06.69v-.69c-.46,0-.69.23-.69.69l-4.12-.69-4.8.69-1.37-.69c-.92.46-1.6.69-2.06.69v-.69c-.46,0-.69.23-.69.69l-4.12-.69-4.8.69-1.37-.69c-.92.46-1.6.69-2.06.69v-.69c-.46,0-.69.23-.69.69l-4.12-.69-4.8.69-1.37-.69c-.92.46-1.6.69-2.06.69v-.69c-.46,0-.69.23-.69.69l-3.43-.69h-1.37l-3.43.69-.69-1.37v-.69c0-2.51.91-4.12,2.74-4.8Zm0-13.03h104.25v.69c-1.26,4.12-2.17,6.17-2.74,6.17l-1.37-.69c-.92.46-1.6.69-2.06.69v-.69c-.46,0-.69.23-.69.69l-4.12-.69-4.8.69-1.37-.69c-.92.46-1.6.69-2.06.69v-.69c-.46,0-.69.23-.69.69l-4.11-.69-4.8.69-1.37-.69c-.92.46-1.6.69-2.06.69v-.69c-.46,0-.69.23-.69.69l-4.12-.69-4.8.69-1.37-.69c-.92.46-1.6.69-2.06.69v-.69c-.46,0-.69.23-.69.69l-4.12-.69-4.8.69-1.37-.69c-.92.46-1.6.69-2.06.69v-.69c-.46,0-.69.23-.69.69l-4.12-.69-4.8.69-1.37-.69c-.92.46-1.6.69-2.06.69v-.69c-.46,0-.69.23-.69.69l-4.12-.69-4.8.69-1.37-.69c-.92.46-1.6.69-2.06.69v-.69c-.46,0-.69.23-.69.69l-4.12-.69-4.8.69-1.37-.69c-.92.46-1.6.69-2.06.69v-.69c-.46,0-.69.23-.69.69-1.83-.46-3.43-.69-4.8-.69v-2.06l.69-1.37c-.69,0-1.37-.69-2.06-2.06v-.69Zm25.38-65.16h53.5c1.83.69,2.74,2.29,2.74,4.8v1.37c-1.6,0-3.66.23-6.17.69l-1.37-.69c-.92.46-1.6.69-2.06.69v-.69c-.46,0-.69.23-.69.69l-4.12-.69-4.8.69-1.37-.69c-.92.46-1.6.69-2.06.69v-.69c-.46,0-.69.23-.69.69l-4.12-.69-4.8.69-1.37-.69c-.92.46-1.6.69-2.06.69v-.69c-.46,0-.69.23-.69.69l-4.12-.69-4.8.69-1.37-.69c-.92.46-1.6.69-2.06.69v-.69c-.46,0-.69.23-.69.69l-3.43-.69h-.69l-4.8.69-.69-1.37v-.69c0-2.51.91-4.12,2.74-4.8Zm4.12-13.03h45.27c1.83.69,2.74,2.29,2.74,4.8v.69c0,.92-.69,1.37-2.06,1.37l-1.37-.69c-.92.46-1.6.69-2.06.69v-.69c-.46,0-.69.23-.69.69l-4.12-.69-4.8.69-1.37-.69c-.92.46-1.6.69-2.06.69v-.69c-.46,0-.69.23-.69.69l-4.12-.69-4.8.69-1.37-.69c-.92.46-1.6.69-2.06.69v-.69c-.46,0-.69.23-.69.69l-4.12-.69-4.8.69-1.37-.69c-.92.46-1.6.69-2.06.69v-.69c-.46,0-.69.23-.69.69-3.66-.46-5.49-1.14-5.49-2.06,0-2.51.91-4.12,2.74-4.8Zm4.12-13.03h37.04c1.83.69,2.74,2.29,2.74,4.8v.69c0,.92-.46,1.37-1.37,1.37v-.69c-.46,0-.69.23-.69.69l-4.12-.69-4.8.69-1.37-.69c-.92.46-1.6.69-2.06.69v-.69c-.46,0-.69.23-.69.69l-4.12-.69-4.8.69-1.37-.69c-.92.46-1.6.69-2.06.69v-.69c-.46,0-.69.23-.69.69l-4.12-.69-4.8.69-1.37-.69c-.92.46-1.6.69-2.06.69,0-.46-.23-.69-.69-.69,0,.46-.23.69-.69.69l-.69-1.37v-2.06c1.26-2.29,2.17-3.43,2.74-3.43Zm4.12-13.03h28.8c1.83.69,2.74,2.29,2.74,4.8,0,1.03-2.29,1.71-6.86,2.06l-1.37-.69c-.92.46-1.6.69-2.06.69v-.69c-.46,0-.69.23-.69.69l-4.12-.69-4.8.69-1.37-.69c-.92.46-1.6.69-2.06.69v-.69c-.46,0-.69.23-.69.69l-4.12-.69c-.34,0-2.17.23-5.49.69l-.69-1.37v-2.06c1.26-2.29,2.17-3.43,2.74-3.43Zm4.11-13.03h20.58c1.83.69,2.74,2.29,2.74,4.8v.69c0,.92-.46,1.37-1.37,1.37-1.03,0-1.95-.23-2.74-.69-.92.46-1.6.69-2.06.69v-.69c-.46,0-.69.23-.69.69l-4.12-.69-4.8.69-1.37-.69c-.92.46-1.6.69-2.06.69v-.69c-.46,0-.69.23-.69.69l-3.43-.69h-2.74v-.69c.57-3.43,1.48-5.26,2.74-5.49Zm4.12-13.03h12.35c1.83.69,2.74,2.29,2.74,4.8v.69c0,.92-.46,1.37-1.37,1.37-.46,0-.69-.23-.69-.69-.46,0-.69.23-.69.69l-4.12-.69-4.8.69-1.37-.69c-.92.46-1.6.69-2.06.69,0-.46-.23-.69-.69-.69,0,.46-.23.69-.69.69l-1.37-2.06v-1.37c1.26-2.29,2.17-3.43,2.74-3.43Zm4.12-13.03h4.12c.69,0,1.6,1.14,2.74,3.43v1.37c0,1.03-2.74,1.71-8.23,2.06l-1.37-2.06c1.14-3.2,2.06-4.8,2.74-4.8Zm1.37-9.6h1.37v2.06h-1.37V0Zm2.74,192.04h58.98c1.83.69,2.74,2.29,2.74,4.8v.69c0,.92-.46,1.37-1.37,1.37l-1.37-.69c-.92.46-1.6.69-2.06.69v-.69c-.46,0-.69.23-.69.69l-4.12-.69-4.8.69-1.37-.69c-.92.46-1.6.69-2.06.69v-.69c-.46,0-.69.23-.69.69l-4.12-.69-4.8.69-1.37-.69c-.92.46-1.6.69-2.06.69v-.69c-.46,0-.69.23-.69.69l-4.11-.69-4.8.69-1.37-.69c-.92.46-1.6.69-2.06.69v-.69c-.46,0-.69.23-.69.69l-3.43-.69h-.69l-4.12.69c-5.26-2.29-8.23-4.34-8.92-6.17v-.69Zm17.83,13.03h45.27c1.83.69,2.74,2.29,2.74,4.8v1.37c-1.14,0-2.97.23-5.49.69l-1.37-.69c-.92.46-1.6.69-2.06.69v-.69c-.46,0-.69.23-.69.69l-4.12-.69-4.8.69-1.37-.69c-.92.46-1.6.69-2.06.69v-.69c-.46,0-.69.23-.69.69l-4.12-.69-4.8.69-1.37-.69c-.92.46-1.6.69-2.06.69v-.69c-.46,0-.69.23-.69.69-5.03,0-9.15-2.06-12.34-6.17v-.69Zm17.83,13.03h32.23c1.37.46,2.06,1.83,2.06,4.11v1.37l-.69,1.37-4.12-.69-4.8.69-1.37-.69c-.92.46-1.6.69-2.06.69v-.69c-.46,0-.69.23-.69.69l-4.12-.69-4.8.69-1.37-.69-1.37.69c-4-1.37-6.97-3.43-8.92-6.17v-.69Zm17.15,13.03h19.2c.69,0,1.6,1.14,2.74,3.43v2.06c0,.92-.46,1.37-1.37,1.37l-1.37-.69c-.92.46-1.6.69-2.06.69v-.69c-.46,0-.69.23-.69.69l-3.43-.69h-1.37c-1.03,0-1.95.23-2.74.69l-8.92-5.49v-1.37Zm19.2,13.03h4.12c1.83.69,2.74,2.29,2.74,4.8v.69h-2.06c-3.54-1.94-5.6-3.54-6.17-4.8l1.37-.69Z" fill="#b40000"/></svg>