<?xml version="1.0" encoding="utf-8"?>
<!-- Generator: Adobe Illustrator 27.5.0, SVG Export Plug-In . SVG Version: 6.00 Build 0)  -->
<svg version="1.1" id="a" xmlns="http://www.w3.org/2000/svg" xmlns:xlink="http://www.w3.org/1999/xlink" x="0px" y="0px"
	 viewBox="0 0 991.6 672.7" style="enable-background:new 0 0 991.6 672.7;" xml:space="preserve">
<style type="text/css">
	.st0{fill:#FFD800;}
	.st1{fill:#B40000;}
	.st2{font-family:'Montserrat-SemiBold';}
	.st3{font-size:392.4758px;}
	.st4{font-family:'Montserrat-Bold';}
	.st5{font-size:227.6359px;}
	.st6{letter-spacing:46;}
</style>
<polygon class="st0" points="524.8,0 575.4,92.2 676.5,29.6 684,126.1 810.7,89.3 774.1,180.6 914,173.1 837,250.3 976.3,273 
	866.5,328.5 991.6,379 859.7,407.4 958.4,480.8 817.3,479.3 879.9,568.5 743.4,537.3 763.8,633.5 645.3,575.6 621.5,669.4 
	532.6,590.5 466.9,672.7 416.2,580.5 315.1,643 307.7,546.5 181,583.3 217.5,492.1 77.7,499.5 154.6,422.3 15.3,399.7 125.1,344.2 
	0,293.7 131.9,265.3 33.2,191.8 174.3,193.3 111.7,104.1 248.2,135.3 227.8,39.2 346.3,97.1 370.1,3.3 459.1,82.2 "/>
<text transform="matrix(0.9963 8.576603e-02 -8.576603e-02 0.9963 280.21 457.5064)" class="st1 st2 st3">5</text>
<text transform="matrix(0.9963 8.576603e-02 -8.576603e-02 0.9963 537.5484 412.569)" class="st1 st4 st5 st6">€</text>
</svg>
