<?xml version="1.0" encoding="UTF-8"?><svg id="a" xmlns="http://www.w3.org/2000/svg" viewBox="0 0 991.64 672.65"><polygon points="524.75 0 575.42 92.19 676.55 29.64 683.97 126.09 810.66 89.3 774.11 180.58 913.95 173.14 837 250.31 976.31 272.95 866.5 328.45 991.64 378.97 859.71 407.37 958.43 480.81 817.3 479.34 879.94 568.51 743.43 537.3 763.85 633.48 645.31 575.59 621.53 669.36 532.56 590.46 466.89 672.65 416.22 580.46 315.09 643.01 307.67 546.55 180.98 583.35 217.53 492.07 77.69 499.51 154.64 422.34 15.33 399.69 125.14 344.19 0 293.68 131.93 265.27 33.21 191.83 174.34 193.31 111.7 104.14 248.21 135.34 227.79 39.17 346.33 97.05 370.11 3.28 459.08 82.18 524.75 0" fill="#ffd800"/><text transform="translate(208.07 439.06) rotate(4.92)" fill="#b40000" font-family="Montserrat-SemiBold, Montserrat" font-size="350.28" font-weight="600"><tspan x="0" y="0">20</tspan></text><text transform="translate(643.63 419.04) rotate(4.92) scale(.58)" fill="#b40000" font-family="Montserrat-Bold, Montserrat" font-size="350.28" font-weight="700" letter-spacing=".21em"><tspan x="0" y="0">€</tspan></text></svg>